<?xml version="1.0" encoding="utf-8"?>
<!-- Generator: Adobe Illustrator 20.0.0, SVG Export Plug-In . SVG Version: 6.00 Build 0)  -->
<!DOCTYPE svg PUBLIC "-//W3C//DTD SVG 1.1//EN" "http://www.w3.org/Graphics/SVG/1.1/DTD/svg11.dtd">
<svg version="1.1" id="Layer_1" xmlns="http://www.w3.org/2000/svg" xmlns:xlink="http://www.w3.org/1999/xlink" x="0px" y="0px"
	 viewBox="0 0 2660.799 1059.258" enable-background="new 0 0 2660.799 1059.258" xml:space="preserve">
<g>
	<g>
		<path d="M1308.436,41.066c33.346-6.074,66.744,15.012,77.435,45.226c13.557,35.583-4.859,75.836-38.727,89.721
			c-42.538,17.908-91.885-9.327-97.624-56.876C1244.112,91.866,1263.884,48.368,1308.436,41.066 M1304.879,173.337
			c25.834,8.106,60.652-7.208,71.695-37.503c14.055-36.064-10.099-76.561-48.67-81.789
			C1242.375,51.3,1238.578,157.117,1304.879,173.337z"/>
		<path d="M1176.393,139.012c-15.872-5.497-28.454-16.39-85.641-17.599c-118.407,2.891-209.386,79.18-235.046,94.664
			c-55.918,34.01-127.594,51.859-185.02,32.456c-45.805-13.627-83.806-54.55-91.02-64.969c5.063,3.269,44.785,40.115,112.092,48.745
			c6.584,1.376,13.33,0.93,19.98,1.546c8.69,1.603,17.371-0.825,26.099-0.455c121.41-11.06,171.194-103.446,315.659-127.764
			C1104.33,99.032,1161.02,125.592,1176.393,139.012z"/>
		<path d="M1785.008,181.221c26.298,16.04,70.65,45.586,135.838,52.094c73.557,4.111,114.321-16.433,159.205-49.865
			c-7.198,11.214-49.236,60.899-114.862,70.917c-0.949,0.093-30.365,4.352-50.652,0.968c-43.134-4.491-89.35-24.146-121.38-46.544
			c-193.055-139.048-299.478-72.008-309.986-69.883c7.381-5.218,15.474-9.288,23.443-13.51
			C1602.281,76.919,1686.486,122.113,1785.008,181.221z"/>
		<path d="M1467.736,120.531c-50.616,22.507-88.222,62.297-121.882,105.84c7.281-16.3,37.417-54.67,62.606-74.095
			C1432.885,132.207,1460.602,120.208,1467.736,120.531z"/>
		<path d="M1192.977,123.33c10.017,0.611,60.787,25.608,99.54,80.49c2.343,3.311,4.971,6.565,6.024,10.578
			c-3.463-2.011-5.408-5.569-7.96-8.482C1236.636,141.795,1200.021,129.761,1192.977,123.33z"/>
		<path d="M1158.405,148.557c-16.793,2.438-56.116-13.534-148.247,41.706c-67.462,40.001-127.383,92.805-194.526,97.178
			c-6.31,0.174-55.963,1.086-61.288-2.372c140.756-10.713,194.227-126.521,323.6-139.481
			C1106.883,140.518,1153.395,148.292,1158.405,148.557z"/>
		<path d="M1630.708,156.308c99.203,32.404,152.879,120.412,275.623,128.818c-4.553,2.264-59.622,5.481-87.624-1.632
			c-96.443-23.986-205.858-150.152-305.071-135.013c-3.795,0.778-7.694,0.626-11.489,0.066
			C1513.199,147.844,1569.408,135.181,1630.708,156.308z"/>
		<path d="M428.468,190.945c6.819,1.005,63.345,4.499,116.759-14.402c-106.726,62.229-166.724,26.756-264.656,17.058
			c-0.956,0-69.47-6.029-91.476-0.778c-74.848,8.044-126.537,56.772-138.599,120.213c-1.135-19.161,15.364-103.007,84.237-138.371
			C219.012,132.407,300.856,189.463,428.468,190.945z"/>
		<path d="M2567.885,208.402c31.565,37.459,42.852,91.043,42.446,108.297c-12.879-75.065-75.892-134.624-202.742-124.994
			c-23.039-0.874-89.384,10.902-98.98,12.514c-69.798,12.886-116.16,14.61-187.088-23.832c4.516-0.636,8.605,1.793,12.893,2.77
			c103.799,26.602,247.795-15.714,284.503-21.517C2461.425,159.776,2513.725,150.053,2567.885,208.402z"/>
		<path d="M1190.956,173.015c59.446,5.514,96.458,43.712,102.5,54.912c-24.695-17.95-54.959-26.555-85.025-29.467
			c-141.546-3.605-197.711,67.956-270.879,95.451c-64.707,23.296-134.66,21.641-200.37,4.487c-6.271-1.224-12.21-3.653-18.405-5.161
			c5.36-0.313,10.142,2.827,15.293,3.842c60.885,20.083,162.402,8.715,248.727-52.379
			C1074.79,179.137,1149.398,166.839,1190.956,173.015z"/>
		<path d="M1645.698,223.743c30.609,18.501,82.366,64.64,167.924,78.118c6.682,1.543,34.208,3.417,35.16,3.567
			c61.476,0.127,72.327-8.077,92.14-12.4c-14.544,5.763-46.952,12.172-68.223,15.55c-29.371,6.009-84.642,0.728-85.594,0.721
			c-85.997-11.336-110.869-41.621-167.488-71.183c-72.663-36.725-161.797-57.992-234.145-21.735
			c-6.926,3.235-13.102,7.742-19.572,11.745C1430.1,145.106,1546.233,162.59,1645.698,223.743z"/>
		<path d="M566.573,174.163c4.981,5.292,51.589,99.732,131.645,130.943c3.795,1.461,7.694,2.694,11.356,4.506
			C644.278,295.415,575.174,242.903,566.573,174.163z"/>
		<path d="M2092.973,173.555c1.046,5.604-9.131,68.786-78.801,109.919c-22.976,13.391-51.281,24.246-58.555,24.297
			c13.109-6.609,35.691-10.35,79.996-54.874C2054.653,232.498,2069.545,214.295,2092.973,173.555z"/>
		<path d="M519.203,217.007c32.977-6.684,70.291,16.357,68.128,62.568c-8.769,65.329-100.235,65.167-112.158,5.882
			C468.008,257.786,485.587,223.724,519.203,217.007 M483.171,287.155c11.305,48.18,83.714,50.747,95.565-2.059
			c2.126-22.63-4.345-41.136-24.8-52.379C514.763,210.883,471.875,250.785,483.171,287.155z"/>
		<path d="M1267.679,251.664c-24.58,0.214-71.612-6.65-109.16,2.182c-53.063,12.158-106.66,42.475-195.465,52.654
			c-5.873,1.167-11.906,1.594-17.865,0.816c68.288-12.427,112.524-65.543,179.47-83.696
			C1198.103,203.337,1254.363,235.403,1267.679,251.664z"/>
		<path d="M1592.769,248.153c16.183,9.06,63.068,44.975,121.797,59.191c-17.148,2.621-79.084-12.336-92.823-15.692
			c-54.467-12.997-84.393-33.566-145.771-41.867c-36.069-1.213-68.803,0.824-84.55,3.064
			C1395.733,244.073,1473.199,179.432,1592.769,248.153z"/>
		<path d="M2118.674,216.836c24.097-4.047,44.885,6.124,56.743,22.437c22.622,29.921,8.621,78.439-31.991,88.687
			c-34.542,7.037-59.981-12.437-68.023-36.678C2063.74,261.426,2083.701,222.95,2118.674,216.836 M2088.533,248.77
			c-19.313,28.391-2.509,68.532,31.298,74.778c42.349,9.777,79.24-43.524,45.159-81.334
			C2142.573,218.538,2105.115,223.134,2088.533,248.77z"/>
		<path d="M2375.674,236.778c-27.25,9.102-78.715,27.671-95.29,51.07c-9.123-19.252-26.139-45.947-47.066-50.491
			c0.047-0.873,0.123-1.736,0.228-2.599C2275.488,223.819,2365.891,231.74,2375.674,236.778z"/>
		<path d="M426.883,234.843c0.085,0.778,0.171,1.546,0.266,2.324c-21.02,4.498-36.78,29.421-46.725,48.641
			c-0.446,1.195-2.106,1.176-2.524-0.028c-17.108-24.526-85.589-45.581-92.121-49.03
			C298.088,230.663,389.41,224.722,426.883,234.843z"/>
		<path d="M2509.823,276.15c16.697,10.792,51.895,33.205,72.179,32.2c0.047,0.996-0.427,1.366-1.442,1.119
			c-70.302-3.18-98.313-33.495-158.759-34.164c-9.611,0.123-19.136,2.419-28.756,1.622
			C2423.333,247.515,2471.901,253.672,2509.823,276.15z"/>
		<path d="M227.443,257.271c23.707,3.047,40.318,13.588,45.169,19.695c-11.318,0.768-22.485-2.258-33.803-1.66
			c-27.26-1.541-58.41,12.987-82.71,20.616c-11.587,3.304-49.137,12.961-61.525,12.343c0,0,26.899-9.119,61.25-31.896
			C184.774,259.17,204.806,256.84,227.443,257.271z"/>
	</g>
	<g>
		<path d="M519.071,730.769c33.183-6.966,65.225,16.808,68.346,50.576c3.483,41.037-35.005,69.8-69.76,60.538
			C460.78,830.401,457.631,742.744,519.071,730.769 M483.304,795.68c4.117,16.574,17.494,30.445,33.974,34.979
			c28.592,9.864,63.371-14.89,61.857-46.43c-0.19-4.431,0.313-9.022-1.243-13.263c-3.757-13.643-13.529-25.549-26.422-31.507
			C507.978,720.558,472.488,763.286,483.304,795.68z"/>
		<path d="M2116.748,730.968c30.506-7.031,61.032,12.636,67.749,41.573c7.743,32.111-12.528,63.344-43.271,69.608
			c-27.676,7.053-61.363-11.442-67.891-44.675c-0.607-6.935-0.512-13.918-0.114-20.853
			C2076.665,754.439,2094.823,735.598,2116.748,730.968 M2092.442,751.726c-28.332,31.387-3.416,82.328,37.152,80.575
			c33.627,1.614,59.523-37.309,44.381-68.45C2159.533,731.448,2115.788,724.298,2092.442,751.726z"/>
		<path d="M2610.397,742.296c0.231,20.878-15.052,91.416-62.094,127.565c-37.464,30.023-79.199,32.645-124.634,28.481
			c-37.088-4.846-61.268-17.133-158.313-27.636c-11.052-1.635-33.562-2.694-35.976-2.514c0.418-0.294,0.873-0.569,1.347-0.835
			c-12.76,0.161-25.54,0.228-38.3-0.038c0.522,0.275,1.072,0.56,1.651,0.854c-14.804-0.482-63.147,5.505-76.96,14.449
			c-0.541,0.484-1.063,0.531-1.575,0.133c6.575-4.863,49.249-28.608,93.952-34.296c84.809-14.218,269.032,70.471,362.241-29.097
			C2583.44,808.388,2603.879,779.485,2610.397,742.296z"/>
		<path d="M50.487,746.015C61.121,802.43,104.25,853.968,183.83,866.076c22.416,1.502-5.744,2.567,67.34,2.04
			c95.477-0.648,163.068-48.477,269.342,1.784c8.453,4.07,17.2,7.78,24.809,13.368c-36.683-16.967-83.936-14.84-116.465-15.939
			c0.474,0.275,0.958,0.569,1.442,0.873c-6.769-0.471-40.325,2.865-41.639,2.837c-77.178-0.143-190.223,64.62-274.01,1.138
			C68.217,839.201,48.926,767.35,50.487,746.015z"/>
		<path d="M987.569,789.893c86.381,61.428,218.567,101.978,305.517,42.009c-35.824,53.339-134.446,86.855-267.938,10.218
			c-60.407-36.635-149.664-119.388-306.343-75.338C766.249,745.669,893.307,729.499,987.569,789.893z"/>
		<path d="M1903.447,756.232c-4.269,0.522-8.557,0.095-12.751-0.712c-162.927-15.748-215.257,84.22-331.389,120.364
			c-61.813,19.344-129.433,16.557-177.193-27.219c-5.379-5.398-11.328-10.407-15.436-16.897
			c6.232,3.732,32.513,23.701,80.328,28.471c29.414,5.484,112.53,2.362,216.764-64.447
			C1729.356,748.76,1825.97,737.644,1903.447,756.232z"/>
		<path d="M88.493,750.72c13.18-1.27,47.02,7.053,59.845,10.426c45.534,12.459,58.349,28.726,124.852,20.796
			c-4.552,6.106-21.358,18.347-52.635,20.635C162.061,801.973,137.235,759.982,88.493,750.72z"/>
		<path d="M2577.77,750.749c-30.887,5.418-62.172,30.254-78.782,38.395c-51.615,26.168-93.803,6.861-105.394-6.356
			c19.677-1.03,26.636,3.456,56.952-0.645C2476.907,777.098,2543.71,747.615,2577.77,750.749z"/>
		<path d="M703.085,752.105c-7.134,3.406-14.696,5.854-21.612,9.715c-70.217,37.535-110.389,118.64-115.915,126.171
			C581.442,790.464,685.47,753.089,703.085,752.105z"/>
		<path d="M947.789,751.84c15.007-1.879,72.754,11.526,87.444,15.123c83.207,18.914,108.491,55.131,233.509,39.59
			c-5.904,8.057-64.279,58.385-161.558,23.528c-49.763-18.697-97.91-62.542-153.162-76.135
			C951.887,753.415,949.791,752.703,947.789,751.84z"/>
		<path d="M1711.909,751.859c-5.778,2.429-12.058,3.245-17.902,5.474c-95.324,33.69-106.374,84.751-222.865,84.341
			c-38.028-3.739-70.606-23.485-79.731-35.055c52.672,1.19,71.261,14.539,159.632-16.185
			C1641.149,758.5,1698.524,750.988,1711.909,751.859z"/>
		<path d="M1961.831,753.434c5.714,0,53.268,15.916,87.615,49.305c33.591,31.698,44.759,74.241,43.603,82.71
			c-5.876-8.55-50.971-94.962-122.49-127.366C1967.542,756.726,1964.507,755.379,1961.831,753.434z"/>
		<path d="M1024.37,877.337c76.579,42.272,109.839,31.614,130.336,34.088c-7.799,0.114-15.313,2.543-23.111,2.467
			C969.289,932.552,925.936,801.142,770.34,776.032c-5.389-0.92-11.081-0.636-16.071-3.235
			C880.784,760.233,908.523,812.252,1024.37,877.337z"/>
		<path d="M379.447,771.867c10.477,20.042,26.216,45.847,47.683,50.178c-0.076,0.731-0.133,1.48-0.199,2.239
			c-31.014,9.679-116.024,6.284-143.599-1.698C308.474,815.186,360.54,795.755,379.447,771.867z"/>
		<path d="M1923.968,772.826c-3.425,1.338-7.087,0.123-10.607,0.332c-4.469-0.066-8.871,0.607-13.206,1.537
			c-138.62,15.048-182.058,118.062-308.126,137.783c-31.77,8.103-78.651-1.209-85.527-0.702c0.01-0.218,0.028-0.674,0.038-0.901
			c10.683-0.104,21.365,0.417,32.048-0.095c63.575-6.814,112.724-42.216,165.656-76.467
			C1807.446,767.244,1822.919,768.781,1923.968,772.826z"/>
		<path d="M2280.422,771.82c20.447,28.014,89.501,47.688,95.204,51.259c-29.871,7.055-124.452,11.736-143.153,0.028
			C2238.019,819.682,2256.218,819.169,2280.422,771.82z"/>
		<path d="M734.99,803.061c80.591,4.753,139.339,53.353,155.002,63.451c98.749,64.532,181.643,77.602,225.36,70.595
			c36.331-3.904,51.476-13.608,60.177-16.384c-5.797,5.095-13.007,8.131-19.686,11.849
			c-154.573,80.692-270.341-85.559-403.425-104.805c-15.302-3.814-90.995-11.165-159.566,38.034
			c-4.573,3.32-8.804,7.096-13.557,10.17C619.938,826.135,671.062,799.251,734.99,803.061z"/>
		<path d="M1965.503,804.902c63.619,10.379,107.151,59.665,110.337,66.553c-8.134-3.876-117.749-100.483-275.253-2.827
			c-126.571,77.83-213.173,118.62-316.475,52.426c8.839,0.362,110.071,67.686,300.337-64.38
			C1834.424,819.981,1901.573,795.291,1965.503,804.902z"/>
		<path d="M1345.607,832.728c38.668,48.993,68.227,79.981,123.106,106.665C1428.563,935.227,1360.996,867.444,1345.607,832.728z"/>
		<path d="M1306.254,833.582c-14.232,34.224-79.499,98.502-122.613,105.963C1214.804,923.195,1248.865,907.597,1306.254,833.582z"/>
		<path d="M1318.834,877.887c40.794-0.734,72.267,33.851,71.344,70.481c0.96,30.08-21.203,62.186-55.965,69.295
			c-40.095,8.739-82.868-19.601-85.375-67.388C1248.562,915.548,1271.655,881.372,1318.834,877.887 M1269.074,911.301
			c-23.307,34.784-4.741,80.651,32.883,91.836c57.47,18.465,104.384-53.057,63.09-98.61
			C1339.004,874.555,1290.219,878.497,1269.074,911.301z"/>
	</g>
</g>
</svg>
